<svg width="24" height="24" viewBox="0 0 24 24" fill="none" xmlns="http://www.w3.org/2000/svg">
<path fill-rule="evenodd" clip-rule="evenodd" d="M21.122 2.51099L21.2234 2.50038C21.5926 2.48688 21.9241 2.74796 21.9889 3.12209L21.9995 3.22354C22.013 3.59272 21.7519 3.92426 21.3778 3.98901L19.8688 4.25L18.9542 15.1457L18.9353 15.3095C18.7513 16.5519 17.6827 17.486 16.4099 17.486H5.49788L5.33353 17.4808C4.13721 17.4044 3.14526 16.4996 2.97067 15.2978L2.02161 8.73941L2.00523 8.58877C1.9179 7.38969 2.8678 6.349 4.09088 6.349H18.1878L18.4225 3.54727L18.4402 3.43641C18.5086 3.14809 18.743 2.92273 19.042 2.87099L21.122 2.51099ZM16.5258 15.9797C17.0211 15.9255 17.4172 15.5277 17.4595 15.0207L18.0618 7.849H4.09088L4.00273 7.85548C3.68697 7.90242 3.45887 8.19769 3.50616 8.52465L4.45515 15.0826L4.47895 15.1998C4.5993 15.6584 5.01475 15.986 5.49788 15.986H16.4099L16.5258 15.9797ZM18.0915 20.5853C18.0915 19.7492 17.4138 19.0703 16.5775 19.0703C15.7413 19.0703 15.0625 19.7491 15.0625 20.5853C15.0625 21.4216 15.7414 22.0993 16.5775 22.0993C17.4137 22.0993 18.0915 21.4215 18.0915 20.5853ZM6.84008 20.5853C6.84008 19.7491 6.16129 19.0703 5.32508 19.0703C4.48886 19.0703 3.81008 19.7491 3.81008 20.5853C3.81008 21.4216 4.48898 22.0993 5.32508 22.0993C6.16118 22.0993 6.84008 21.4216 6.84008 20.5853ZM6.35138 10.795C6.35138 10.3808 6.68716 10.045 7.10138 10.045H9.87438L9.97615 10.0518C10.3422 10.1015 10.6244 10.4153 10.6244 10.795C10.6244 11.2092 10.2886 11.545 9.87438 11.545H7.10138L6.99961 11.5382C6.63353 11.4885 6.35138 11.1747 6.35138 10.795Z" fill="#200E32"/>
</svg>
