<svg width="16" height="16" viewBox="0 0 16 16" fill="none" xmlns="http://www.w3.org/2000/svg">
<g opacity="0.6">
<path d="M8 9.33334C9.10457 9.33334 10 8.43791 10 7.33334C10 6.22877 9.10457 5.33334 8 5.33334C6.89543 5.33334 6 6.22877 6 7.33334C6 8.43791 6.89543 9.33334 8 9.33334Z" stroke="white" stroke-linecap="round" stroke-linejoin="round"/>
<path d="M11.7707 11.1047L8.94202 13.9333C8.69201 14.1831 8.35307 14.3234 7.99968 14.3234C7.6463 14.3234 7.30736 14.1831 7.05735 13.9333L4.22802 11.1047C3.48217 10.3588 2.97424 9.40846 2.76848 8.3739C2.56271 7.33935 2.66834 6.26701 3.07202 5.29248C3.4757 4.31796 4.15928 3.48502 5.03634 2.899C5.9134 2.31298 6.94453 2.00019 7.99935 2.00019C9.05417 2.00019 10.0853 2.31298 10.9624 2.899C11.8394 3.48502 12.523 4.31796 12.9267 5.29248C13.3304 6.26701 13.436 7.33935 13.2302 8.3739C13.0245 9.40846 12.5165 10.3588 11.7707 11.1047V11.1047Z" stroke="white" stroke-linecap="round" stroke-linejoin="round"/>
</g>
</svg>
