<svg width="24" height="24" viewBox="0 0 24 24" fill="none" xmlns="http://www.w3.org/2000/svg">
<path d="M13.7679 4.93786C14.0331 4.47849 14.47 4.1433 14.9823 4.00601C15.4947 3.86872 16.0406 3.94059 16.5 4.20581C16.9593 4.47103 17.2945 4.90786 17.4318 5.42022C17.5691 5.93258 17.4972 6.47849 17.232 6.93786C17.9551 7.98234 18.3803 9.20389 18.462 10.4716C18.5438 11.7393 18.279 13.0053 17.6961 14.134L16.1961 16.7321C15.9505 17.3081 15.8435 17.9338 15.8838 18.5588C15.9241 19.1837 16.1105 19.7905 16.4282 20.3302L2.57178 12.3302C3.198 12.3354 3.8167 12.1935 4.37807 11.9159C4.93945 11.6384 5.4278 11.2329 5.80383 10.7321L7.30383 8.13401C7.98987 7.06487 8.95392 6.20257 10.0927 5.63953C11.2314 5.07649 12.5019 4.83393 13.7679 4.93786" stroke="white" stroke-width="1.5" stroke-linecap="round" stroke-linejoin="round"/>
<path d="M6.90186 14.8301L6.40186 15.6961C6.00403 16.3852 5.89622 17.204 6.10215 17.9726C6.30808 18.7411 6.81088 19.3964 7.49993 19.7942C8.18898 20.192 9.00785 20.2998 9.77639 20.0939C10.5449 19.888 11.2002 19.3852 11.598 18.6961L12.098 17.8301" stroke="white" stroke-width="1.5" stroke-linecap="round" stroke-linejoin="round"/>
</svg>
